<?xml version="1.0" encoding="UTF-8"?> <svg xmlns="http://www.w3.org/2000/svg" width="581" height="269" viewBox="0 0 581 269" fill="none"><path d="M355.561 143.739V106.552C355.561 103.151 354.487 100.421 352.339 98.3624C350.28 96.2144 347.64 95.1404 344.418 95.1404C342.181 95.1404 340.212 95.6327 338.511 96.6172C336.811 97.5122 335.468 98.8547 334.484 100.645C333.499 102.345 333.007 104.314 333.007 106.552L325.086 102.658C325.086 97.5569 326.16 93.082 328.308 89.2335C330.456 85.385 333.455 82.4315 337.303 80.3731C341.151 78.2251 345.582 77.1511 350.594 77.1511C355.695 77.1511 360.17 78.2251 364.019 80.3731C367.867 82.4315 370.82 85.3403 372.879 89.0992C375.027 92.7687 376.101 97.0647 376.101 101.987V143.739H355.561ZM312.467 143.739V46.2738H333.007V143.739H312.467Z" fill="#E55291"></path><path d="M277.415 145.215C270.703 145.215 264.617 143.739 259.157 140.785C253.698 137.832 249.402 133.759 246.27 128.568C243.137 123.377 241.571 117.56 241.571 111.116C241.571 104.583 243.137 98.7652 246.27 93.6637C249.492 88.4727 253.832 84.4005 259.292 81.447C264.751 78.4936 270.882 77.0168 277.684 77.0168C282.785 77.0168 287.439 77.9118 291.646 79.7018C295.942 81.4023 299.745 83.9978 303.057 87.4882L289.9 100.645C288.379 98.9442 286.589 97.6912 284.531 96.8857C282.562 96.0802 280.279 95.6774 277.684 95.6774C274.73 95.6774 272.09 96.3487 269.763 97.6912C267.526 98.9442 265.736 100.734 264.393 103.061C263.14 105.299 262.514 107.939 262.514 110.982C262.514 114.025 263.14 116.71 264.393 119.037C265.736 121.364 267.57 123.198 269.897 124.541C272.224 125.883 274.82 126.555 277.684 126.555C280.369 126.555 282.741 126.107 284.799 125.212C286.947 124.228 288.782 122.885 290.303 121.185L303.325 134.341C299.924 137.921 296.076 140.651 291.78 142.53C287.484 144.32 282.696 145.215 277.415 145.215Z" fill="#E55291"></path><path d="M202.82 143.739V51.5095H223.36V143.739H202.82ZM188.053 95.946V78.4936H238.128V95.946H188.053Z" fill="#E55291"></path><path d="M140.968 145.081C134.971 145.081 129.601 143.604 124.858 140.651C120.204 137.697 116.49 133.67 113.715 128.568C111.03 123.467 109.688 117.65 109.688 111.116C109.688 104.583 111.03 98.7652 113.715 93.6637C116.49 88.5623 120.204 84.5348 124.858 81.5813C129.601 78.6278 134.971 77.1511 140.968 77.1511C145.353 77.1511 149.291 78.0013 152.782 79.7018C156.362 81.4023 159.27 83.774 161.508 86.817C163.745 89.7705 164.998 93.1715 165.267 97.02V125.212C164.998 129.061 163.745 132.506 161.508 135.549C159.36 138.503 156.496 140.83 152.916 142.53C149.336 144.231 145.353 145.081 140.968 145.081ZM145.129 126.555C149.515 126.555 153.05 125.123 155.735 122.259C158.42 119.305 159.763 115.591 159.763 111.116C159.763 108.073 159.136 105.388 157.883 103.061C156.72 100.734 155.019 98.9442 152.782 97.6912C150.634 96.3487 148.128 95.6775 145.264 95.6775C142.4 95.6775 139.849 96.3487 137.612 97.6912C135.464 98.9442 133.718 100.734 132.376 103.061C131.123 105.388 130.496 108.073 130.496 111.116C130.496 114.07 131.123 116.71 132.376 119.037C133.629 121.364 135.374 123.199 137.612 124.541C139.849 125.883 142.355 126.555 145.129 126.555ZM158.957 143.739V126.152L162.045 110.311L158.957 94.4692V78.4936H179.095V143.739H158.957Z" fill="#E55291"></path><path d="M0.355713 143.739V48.9588H15.3916L52.7128 107.089H45.0606L82.2476 48.9588H97.4178V143.739H76.3407V84.5348L80.0996 85.4745L55.8006 123.333H41.8387L17.6738 85.4745L21.2986 84.5348V143.739H0.355713Z" fill="#E55291"></path><path d="M536.249 268.152C532.408 268.152 528.612 267.661 524.861 266.678C521.199 265.696 517.761 264.312 514.545 262.525C511.42 260.65 508.74 258.506 506.507 256.095L518.163 244.305C520.306 246.627 522.852 248.458 525.799 249.798C528.746 251.048 531.962 251.674 535.445 251.674C537.856 251.674 539.687 251.316 540.938 250.602C542.277 249.887 542.947 248.905 542.947 247.655C542.947 246.047 542.143 244.841 540.536 244.037C539.017 243.144 537.052 242.385 534.641 241.76C532.23 241.045 529.684 240.286 527.005 239.482C524.325 238.679 521.78 237.562 519.368 236.133C516.957 234.704 514.992 232.739 513.474 230.238C511.955 227.648 511.196 224.388 511.196 220.459C511.196 216.261 512.268 212.644 514.412 209.607C516.555 206.481 519.592 204.025 523.521 202.239C527.451 200.453 532.051 199.559 537.32 199.559C542.858 199.559 547.949 200.542 552.593 202.507C557.327 204.382 561.167 207.196 564.114 210.947L552.459 222.736C550.405 220.325 548.083 218.628 545.493 217.645C542.992 216.663 540.536 216.172 538.124 216.172C535.802 216.172 534.06 216.529 532.899 217.243C531.738 217.869 531.158 218.806 531.158 220.057C531.158 221.396 531.917 222.468 533.435 223.272C534.954 224.076 536.918 224.79 539.33 225.416C541.741 226.041 544.287 226.8 546.966 227.693C549.646 228.586 552.191 229.792 554.603 231.31C557.014 232.829 558.979 234.883 560.497 237.473C562.016 239.974 562.775 243.278 562.775 247.387C562.775 253.728 560.363 258.774 555.54 262.525C550.807 266.276 544.376 268.152 536.249 268.152Z" fill="#E55291"></path><path d="M456.802 266.544V201.435H477.3V266.544H456.802ZM477.3 230.774L468.726 224.076C470.423 216.484 473.281 210.59 477.3 206.392C481.319 202.194 486.901 200.095 494.046 200.095C497.172 200.095 499.896 200.587 502.218 201.569C504.63 202.462 506.728 203.891 508.515 205.856L496.323 221.263C495.43 220.28 494.314 219.521 492.974 218.985C491.635 218.449 490.116 218.181 488.419 218.181C485.025 218.181 482.301 219.253 480.247 221.397C478.282 223.451 477.3 226.577 477.3 230.774Z" fill="#E55291"></path><path d="M415.559 268.018C408.504 268.018 402.207 266.589 396.67 263.731C391.222 260.784 386.935 256.72 383.809 251.54C380.683 246.36 379.12 240.51 379.12 233.99C379.12 227.47 380.638 221.664 383.675 216.574C386.801 211.393 390.998 207.33 396.268 204.382C401.537 201.435 407.477 199.961 414.086 199.961C420.516 199.961 426.188 201.346 431.1 204.114C436.012 206.883 439.853 210.724 442.621 215.636C445.479 220.548 446.908 226.175 446.908 232.516C446.908 233.677 446.819 234.927 446.64 236.267C446.551 237.518 446.328 238.991 445.971 240.688L389.837 240.822V226.755L437.263 226.621L428.421 232.516C428.331 228.765 427.751 225.684 426.679 223.272C425.607 220.771 424 218.896 421.856 217.645C419.802 216.306 417.256 215.636 414.22 215.636C411.004 215.636 408.191 216.395 405.78 217.913C403.458 219.342 401.627 221.397 400.287 224.076C399.036 226.755 398.411 230.015 398.411 233.856C398.411 237.696 399.081 241.001 400.421 243.77C401.85 246.449 403.815 248.548 406.316 250.066C408.906 251.495 411.942 252.21 415.425 252.21C418.641 252.21 421.543 251.674 424.134 250.602C426.724 249.441 429.001 247.744 430.966 245.511L442.219 256.765C439.004 260.516 435.119 263.329 430.564 265.205C426.009 267.08 421.008 268.018 415.559 268.018Z" fill="#E55291"></path><path d="M354.816 266.544L332.041 232.784L354.682 201.435H377.591L350.261 236.669L350.931 228.229L378.93 266.544H354.816ZM313.151 266.544V169.282H333.648V266.544H313.151Z" fill="#E55291"></path><path d="M260.671 267.884C254.687 267.884 249.329 266.41 244.595 263.463C239.951 260.516 236.244 256.497 233.476 251.406C230.796 246.315 229.456 240.51 229.456 233.99C229.456 227.47 230.796 221.664 233.476 216.574C236.244 211.483 239.951 207.464 244.595 204.516C249.329 201.569 254.687 200.095 260.671 200.095C265.048 200.095 268.978 200.944 272.461 202.641C276.033 204.338 278.936 206.704 281.169 209.741C283.402 212.688 284.652 216.082 284.92 219.923V248.057C284.652 251.897 283.402 255.336 281.169 258.372C279.025 261.32 276.167 263.642 272.595 265.339C269.022 267.036 265.048 267.884 260.671 267.884ZM264.824 249.396C269.201 249.396 272.729 247.967 275.408 245.109C278.088 242.162 279.427 238.455 279.427 233.99C279.427 230.953 278.802 228.274 277.552 225.952C276.391 223.629 274.694 221.843 272.461 220.593C270.317 219.253 267.816 218.583 264.958 218.583C262.1 218.583 259.555 219.253 257.322 220.593C255.179 221.843 253.437 223.629 252.097 225.952C250.847 228.274 250.222 230.953 250.222 233.99C250.222 236.937 250.847 239.572 252.097 241.894C253.348 244.216 255.089 246.047 257.322 247.387C259.555 248.726 262.056 249.396 264.824 249.396ZM278.623 266.544V248.994L281.705 233.186L278.623 217.377V201.435H298.719V266.544H278.623Z" fill="#E55291"></path><path d="M120.352 266.544V171.962H135.356L172.6 229.971H164.964L202.073 171.962H217.212V266.544H196.179V207.464L199.93 208.401L175.681 246.181H161.748L137.634 208.401L141.251 207.464V266.544H120.352Z" fill="#E55291"></path><path d="M527.747 174.618H500.019C498.159 174.618 496.374 173.879 495.058 172.564C493.743 171.248 493.004 169.463 493.004 167.603V156.802C493.009 155.143 492.676 153.501 492.025 151.975C491.375 150.449 490.42 149.072 489.219 147.927C486.187 144.969 481.782 143.328 477.179 143.441C468.854 143.636 461.822 150.964 461.822 159.445V167.603C461.822 169.463 461.083 171.248 459.768 172.564C458.452 173.879 456.667 174.618 454.807 174.618H427.375C424.528 174.618 421.709 174.058 419.079 172.968C416.449 171.879 414.059 170.282 412.046 168.269C407.98 164.203 405.696 158.689 405.696 152.94V125.508C405.696 123.647 406.435 121.863 407.751 120.547C409.067 119.231 410.851 118.492 412.712 118.492H423.512C427.083 118.492 430.555 116.964 433.292 114.205C434.814 112.671 436.018 110.85 436.834 108.849C437.65 106.847 438.062 104.704 438.047 102.543C437.93 94.2841 431.132 87.3112 423.201 87.3112H412.712C410.851 87.3112 409.067 86.572 407.751 85.2563C406.435 83.9406 405.696 82.1561 405.696 80.2954V52.8638C405.696 50.0169 406.257 47.1979 407.346 44.5677C408.436 41.9375 410.033 39.5477 412.046 37.5346C416.111 33.4691 421.625 31.1851 427.375 31.1851H448.906C449.733 31.1851 450.526 30.8566 451.11 30.2718C451.695 29.6871 452.024 28.894 452.024 28.067V25.5413C452.024 22.1495 452.699 18.7916 454.011 15.6636C455.323 12.5357 457.244 9.70036 459.664 7.32309C462.083 4.94583 464.952 3.07426 468.102 1.81761C471.253 0.560962 474.622 -0.0555907 478.013 0.00393363C491.846 0.245588 503.098 11.845 503.098 25.857V28.067C503.098 28.894 503.427 29.6871 504.012 30.2718C504.596 30.8566 505.39 31.1851 506.217 31.1851H527.747C530.555 31.1851 533.336 31.7382 535.93 32.8127C538.524 33.8873 540.881 35.4623 542.867 37.4479C544.852 39.4334 546.427 41.7906 547.502 44.3848C548.577 46.9791 549.13 49.7596 549.13 52.5676V74.0982C549.13 74.9251 549.458 75.7182 550.043 76.303C550.628 76.8878 551.421 77.2163 552.248 77.2163H554.454C568.711 77.2163 580.311 88.5194 580.311 102.411C580.311 116.68 568.856 128.291 554.773 128.291H552.248C551.421 128.291 550.628 128.62 550.043 129.204C549.458 129.789 549.13 130.582 549.13 131.409V153.236C549.13 156.044 548.577 158.824 547.502 161.419C546.427 164.013 544.852 166.37 542.867 168.356C540.881 170.341 538.524 171.916 535.93 172.991C533.336 174.065 530.555 174.618 527.747 174.618Z" fill="#E55291"></path></svg> 